<?xml version="1.0" encoding="utf-8"?>
<!-- Generator: Adobe Illustrator 25.2.1, SVG Export Plug-In . SVG Version: 6.00 Build 0)  -->
<svg version="1.1" id="Layer_1" xmlns="http://www.w3.org/2000/svg" xmlns:xlink="http://www.w3.org/1999/xlink" x="0px" y="0px"
	 viewBox="0 0 600 568" style="enable-background:new 0 0 600 568;" xml:space="preserve">

<style> 
.district { 
	color: transparent;
}    

.lake {
	color: lightblue;
}
</style>

<g fill="currentColor" stroke-width="1" stroke="currentColor" class="district Kreis8">
	<path d="M453.5,403.1c-0.9,1-2.4,1.7-3.5,1.7c-1,0-2.8,1.2-4.1,2.6c-4.3,5.2-6.9,7.1-10.8,8.2c-2.2,0.6-6.9,2.7-10.5,4.8
		c-7.2,4.3-11.1,5.6-12,4c-0.9-1.3-3.9-1.4-7.8-0.2c-1.7,0.5-5.4,1.5-8.3,2c-3.5,0.7-6,1.8-7.6,3.5l-5.2,5.8
		c-2,2.1-19.3,14.6-24.2,17.6c-0.5,0.3-2.7,1.9-5.4,4c-0.1-0.2-0.1-0.3-0.2-0.5c-4.5-7.6-9.6-14.8-15.5-21.4c-3-3.4-6.2-6.6-9.5-9.8
		c-1.7-1.6-3.6-3.1-4.7-5.2c-1.1-2.3-0.9-5.4-0.9-7.9c-0.6-19.5-1.2-39-1.8-58.5c0.5-0.5,1.1-1.1,1.7-1.8c1-1.2,4.8-2.8,6.3-2.8
		c2.9,0,8.5-3.1,9.5-5.4c1-2,1.2-2.2,5.2-1c2.2,0.7,6,2.2,8.4,3.2c2.3,1.1,5.4,2.1,6.7,2.5c2.5,0.6,14.4,11.6,18.3,16.9
		c2,2.6,3.5,3.3,13.1,5.6c7.5,1.8,11.7,3.2,13.8,5c1.9,1.7,4,2.4,6.7,2.4c3.1,0,4.5,0.7,7.5,3.7c2,2,4,4.4,4.3,5.3
		c0.4,0.8,2.7,2.4,5.4,3.6c2.5,1.3,6,3.2,7.6,4.5c1.7,1.2,5,2.4,7.3,2.7c2.4,0.2,6.1,1.1,8.1,1.9C454.9,401.4,455,401.6,453.5,403.1
		z"/>
</g>
<g fill="currentColor" stroke-width="1" stroke="currentColor" class="district Kreis2">
	<path d="M341.3,467c-0.5,0.4-2.4,1.8-4.3,3.1c-3.4,2.4-7.2,5.5-9.3,7.3c-0.6,0.6-2.6,2.1-4.5,3.4c-1.9,1.3-4,2.7-4.4,3.3
		c-0.3,0.2-0.4,0.2-0.5,0.3c-1.1,1-6.3,5.6-12.1,13.4c-5.9,8-7,8.9-12.8,9.9c-8,1.5-10.9,3.2-11.7,6.9c-0.4,2.3-1.3,3.7-3,4.3
		c-1.4,0.6-2.3,1.7-2.3,2.9s-0.7,2-2,2c-1.1,0-2.8,0.9-4,2c-1.1,1.1-2.6,1.8-3.3,1.5c-0.8-0.3-1.7-0.1-2,0.5s-1.2,0.8-2,0.5
		c-2.3-0.9-4.3,0.5-4.3,3.2c0,2.8-0.9,4.4-2.5,4.7c-9.4,1.8-15.6,3.4-15.8,4.2c-0.2,0.5-2,1-4.1,1c-1.9,0-4.2,0.6-4.8,1.3
		c-0.6,0.8-2.2,1.2-3.7,1c-1.8-0.3-4.8,0.6-8.5,2.5c-3.6,2-7.1,3-9.8,3c-5.3,0-11.1,1.7-14.6,4.2l-2.8,2l-2.3-2.8
		c-2-2.3-2.3-3.6-2.2-8.7c0.1-3.2,0.8-8.2,1.6-10.8c1.8-6.9,1.6-14-0.7-18.9c-2.4-5.4-2.4-9.5,0-13.6c1.5-2.4,2-4.9,2-10.3
		c0-8.3,3.3-21,7.3-28.1c2.5-4.6,7.5-9.6,9.5-9.6c0.6,0,3.3-1.1,6.2-2.3c5-2.4,5.1-2.4,12.2-1c3.9,0.9,8.3,1.3,9.7,0.9
		c7.9-2,9.1-9.5,3.4-21.5c-3.3-6.9-3.4-7.5-2-9.7c1-1.5,4.9-3.6,11.1-6c10.7-4.2,14.5-7.2,15.5-12.8c0.6-2.9-0.8-22.4-2-29.7
		c-0.1-0.8-0.6-4.1-0.9-7.3c-0.4-3.2-1.4-7.7-2.2-9.9c-1.4-3.8-1.4-4.4,0.6-8.7c2-4.5,8.7-12.5,12.1-14.3c1-0.5,3.8-1.1,6.2-1.4
		c2.7-0.2,5-1.1,5.8-2c0.5-0.8,1.1-1.2,1.3-1.1c0.2-0.2,0.5-0.3,0.8-0.5c0.5-0.3,1-0.6,1.6-0.8c1.4-1.1,2.3-1,3.8,0.5
		c0.4,0.2,0.8,0.6,1.1,0.9c0.5,0.4,1.1,0.7,1.5,0.7c0.3,0,0.6,0.2,0.8,0.4c0.7,0.3,1.3,0.8,1.7,1.3c1.2,0.6,3.2,3,6,7.1
		c5.3,7.8,8.1,12,9.4,14.3c0.2,0.2,0.3,0.4,0.5,0.5l0.7,0.7c0.3,0.2,0.5,0.5,0.7,0.8c0.1,0.1,0.2,0.2,0.2,0.3
		c0.5,0.4,0.9,0.9,1.2,1.4c0.2,0.1,0.3,0.3,0.4,0.4c0.6,20.7,0.7,41.5,1.9,62.2c0.6,9.5,7.5,13.9,13.6,20.3
		c6.8,7.2,12.7,15.2,17.8,23.8c0.3,0.5,0.6,0.8,0.9,1.1C345.9,463.4,343.1,465.5,341.3,467z"/>
</g>
<g fill="currentColor" stroke-width="1" stroke="currentColor" class="district Kreis1">
	<path d="M337.4,323.7c1.7,1.4,2,6.4,0.5,7.3c-0.6,0.4-2.1,2.7-3.4,5.3c-1.6,3.1-3.3,5.1-5.3,6c-1.7,0.7-3,1.6-3,2.1
		s-0.7,0.6-1.4,0.3c-0.8-0.3-2.7,0.2-4.4,1.2c-2.8,1.7-2.9,1.7-4.9-0.7c-1.1-1.3-2.2-3.4-2.5-4.7c-1.3-5.2-12.5-18.6-15.3-18.6
		c-0.8,0-2.2-0.9-3.2-2c-2.1-2.2-9.1-2.7-11.1-0.8c-2.1,2.1-0.2-4.1,2.8-9c1.6-2.4,3.4-6.1,4.3-8.1c0.6-1.5,1.4-2.8,2-3.3
		c0.3-0.6,0.7-1.2,1.2-1.7c0.2-0.4,0.6-0.8,1.2-1.2c6.1-4.3,11.4-17.4,11.8-28.8c0.2-5.2,1.1-5.2,3.5,0c1,2,1.8,3.8,1.9,4.1
		c0.4,2.1,1.9,3.9,2.9,3.9c0.8,0,2.3,0.9,3.5,2s3.1,2,4.4,2c1.5,0,2.2,0.6,2.2,1.7c0,2.8,4,6.2,7.4,6.2c2.6,0,3.5,0.6,4.7,3.1
		c2.5,5.6,3.9,14.4,2.5,16.1c-0.2,0.2-0.3,0.6-0.4,1c-0.1,0.5-1.2,2.7-2.4,5.1C334.5,316.5,334.7,321.6,337.4,323.7z"/>
</g>
<g fill="currentColor" stroke-width="1" stroke="currentColor" class="district lake">
	<path d="M337.5,380l-1-17.7l-3.6-12.8c0.4,0.5-3-3.5-3-3.5l-1.3-1.5l-0.9-1c0,0-0.3-0.4-0.6-0.8l-0.6-0.7l-2.8-5.2
		l-13.6,7c0,0.5-0.9,2-2.2,3.5l2.2,4.8l0.2,2.6l0.2,3.2l-8.9,13.7l-4.6,52.9l3.1,17.7l1.7,14.3l6,12.1l12.5,15.6
		c5.3-4.6,10.6-9.1,16.2-13.3c13-9.9,26.7-19.8,40.4-28.7c0,0-12.8-32.4-13.6-33.8l-20.8-10.1"/>
</g>

<path d="M584.5,376.8c-3.7-2.2-4.7-5-3.1-8.8c2.8-6.9-4.7-14-15.8-14.7l-6.6-0.5l0.1-5c0.1-3.2,0.7-5.2,1.7-5.7
	c2.2-1.3,5.9-11.2,5.2-14.2c-1.9-7.4-10.8-9.7-17.6-4.4l-3.5,2.8l-6.2-2c-3.5-1.1-7.4-3.1-9.4-5c-6.7-6.2-9.9-9.6-9.9-10.4
	c0-0.5-1.2-2-2.6-3.2c-7.8-6.8-14.8-15.3-15.9-19.2c-0.7-2.8-1.5-7.2-2-10.5c-0.3-0.8-0.6-1.7-1-2.6c-0.2-0.6-1-2-1.8-3.3
	c-0.5-0.5-1-1-1.4-1.5c-0.8-0.5-1.5-1.3-2.1-2.1c-0.8-1.3-3-3.3-5-4.5c-1.8-1.2-4.1-3.4-4.9-4.9c-1.3-2.5-1.3-3.2,0.6-7.2
	c3.6-8.2-0.2-15.9-8.6-17.8c-0.6-0.1-2.6-0.7-4.5-1.3c-3.1-1.1-3.4-1.5-3.9-6.2c-0.7-6-3.9-9.5-8.6-9.5c-1.6,0-2.8-0.3-2.8-0.8
	c0.1-0.9,1.9-3.2,2.6-3.6c0,0,0,0,0-0.1c0.2-0.2,0.4-0.4,0.6-0.5c0.3-0.2,0.5-0.4,0.9-0.6c0.4-0.2,0.8-0.4,1.3-0.5
	c0.3-0.1,0.6-0.3,0.9-0.4c0.2-0.1,0.4-0.1,0.6-0.2c0.5-0.3,1-0.6,1.6-0.8c3.7-1.8,11.1-9.1,11.1-10.7c0-1.3-1.5-2.7-3.1-3.4
	c-1-0.3-1.8-1.2-1.8-1.8c0-0.9,2.1-1,7.7-0.6c6.1,0.5,8,0.3,8.9-0.8c0.9-1.1,1.7-1.2,3-0.4c2.5,1.4,3.4,0.6,6.4-5.5
	c2.8-6.2,2.3-8.2-2.5-10.2c-1.7-0.7-2.8-1.5-2.7-1.9c4-7.8,4.1-7.8,2.8-10.4c-0.6-1.4-2-2.7-3-3c-2.2-0.6-2.3-1.2-0.8-4.9
	c0.6-1.5,1.2-3.2,1.4-3.9c0.1-0.6,1.2-2.3,2.3-4c1.2-1.6,2-3.9,1.8-5.2c-0.3-2-1.1-2.4-6.6-3.5c-11.5-2.2-12.2-2.3-13.1-3.3
	c-0.6-0.5-1.7-0.9-2.4-0.9c-0.9,0-2.8-0.7-4.4-1.6c-1.7-0.8-7.9-3.4-14.1-5.9c-10.5-4.2-15.5-5.5-25.7-6.7c-2.8-0.4-5.7-1.6-7.7-3.3
	l-3.3-2.7l1.4-4.6c1-3.4,1.1-8.3,0.6-18.9c-0.7-16.7-1.6-18.6-6.4-15c-1.7,1.2-4.3,2.2-6,2.2c-4.3,0-8.3,2.3-9.8,5.9
	c-0.4,0.9-0.8,1.6-1.3,2.2c-0.2,0.8-0.6,1.6-1.2,2.2c-0.6,1.8-6,5.4-8.4,5.4c-1.5,0-3.2-1.2-4.8-3.2c-4.4-5.7-7.5-8.1-15.9-12.2
	c-4.6-2.2-8.9-4.1-9.4-4.1c-0.6,0-1.1-0.5-1.1-1c0-0.6,0.5-1,1.2-1c0.6,0,0.8-0.3,0.5-0.7c-0.4-0.3,0.4-2,1.7-3.7
	c3-3.9,8.4-14.9,8.4-17.2c0-0.9-0.7-1.9-1.4-2.2c-2.1-0.9-4.6-6-6.7-14.3c-1-4-1.8-7.8-2-8.4c0-0.6-1.6-2-3.4-3.3
	c-2.9-2-4.3-2.3-11.5-2.2c-7.2,0.2-8.4,0-10.2-1.8c-2.2-2.2-15.5-6-18-5.2c-0.8,0.4-1.5,1.7-1.5,2.9c0,2-0.5,2.3-2.8,2.3
	c-1.7,0-3.2,0.4-3.5,1c-0.3,0.5-3.8,1-7.6,1c-5.4,0-7.7-0.5-10-2c-1.8-1.3-4.6-2-7.5-2c-2.4,0-7.3-0.9-10.7-2
	c-10.8-3.4-15.3-2.3-16.9,4.1l-0.7,2.6L239,20.4c-7.6,0.3-15.4,0.8-17.4,1.2c-2.8,0.6-4.5,0.1-8.8-2.3c-2.9-1.6-10.2-4.9-16.3-7.3
	c-9.3-3.8-12.2-4.5-17.6-4.5c-6,0-7.1,0.4-12.9,3.9c-7,4.3-15.4,7.4-22.9,8.3c-9.5,1.3-14.7,3.2-18,6.8c-2.6,3-3,4.2-3,8.9
	c0,2.9,0.6,6.5,1.4,8c1.4,2.6,7.9,7,10.5,7c3.1,0,7.7,7.1,7.6,11.8c-0.1,1.8-9.3,6-12,5.4c-1.2-0.3-3.2-1.5-4.5-2.6
	c-2.9-2.7-7.9-3.1-10.1-0.8c-1,1-1.8,2.2-1.8,2.7c0,1.7-2,2.2-3.4,1.1c-0.8-0.7-1.5-0.9-1.5-0.4s-0.4,0.3-0.8-0.4
	c-1.2-1.7-4.8-2.2-5.9-0.9c-0.6,0.7-1.5,3.8-2,6.9c-1.9,10.3-7,15.1-17.3,16.1c-4.7,0.5-6.8,1.3-7.8,2.5c-1.6,2.2-1.8,6-0.4,6.8
	c1.6,1,1.1,4.7-1,7.8c-2.1,3.2-2.5,9.3-0.8,11c0.7,0.7,2.1,1.2,3.4,1.2c1.5,0,2.2,0.6,2.2,1.8c0,1,0.7,2.7,1.6,3.9
	c1.2,1.8,2.4,2.2,6.2,2.2c4.9,0,7.1-1.3,8.3-4.9c0.3-1.1,1.3-1.9,2-1.9c1.1,0,1,0.7-0.7,2.8c-2.5,3.5-1.8,8.5,1.5,10
	c1.8,0.9,2.2,1.8,2,7c0,3.3,0.4,7.7,0.8,9.7c0.7,3.3,0.6,3.7-1.1,3.7c-1.1,0-4.8,0.9-8.3,2c-3.5,1.1-9.6,2.3-13.5,2.8
	c-4.7,0.7-7.6,1.6-8.9,2.8c-1.8,1.8-5.1,14.2-4.3,16.4c0.2,0.6-0.7,1.7-2,2.4c-2,1-2.3,1.8-1.8,3.7c0.8,2.9,2.5,4.4,8.3,6.6
	c2.4,0.9,4.9,2.2,5.6,2.7c0.7,0.5,1.8,1.6,2.6,2.1c0.8,0.7,2.8,1.3,4.5,1.3h3l-1.8,2.3c-1.2,1.6-2.2,2.1-3.2,1.6
	c-0.8-0.4-3.6-1-6.3-1.4c-2.6-0.3-6-0.9-7.5-1.2c-1.8-0.4-3.1,0-4.6,1.5c-2.9,2.9-2.5,4.7,1.9,8.8c2.4,2.2,4,4.7,4.4,6.7
	c0.5,2.9,0.4,3.1-1.4,2c-2.5-1.6-8.1,1-10.5,4.8c-1,1.5-2,2.9-2.2,3.2c-0.4,0.3-1.4,2.3-2.2,4.6c-2.6,6.6-5.7,13.2-6.8,14
	c0,0.2-0.1,0.4-0.3,0.6c-0.1,0.2-0.2,0.3-0.3,0.5c-0.1,0.3-0.2,0.5-0.3,0.7c-0.2,0.6-1.1,1.9-2.1,3.1c-1.3,1.4-2.3,2.7-2.4,3.1
	c-0.1,0.4-0.5,1.5-0.8,2.2c-0.4,0.8-0.4,2.6-0.2,3.9c0.4,2,0.1,2.4-1.7,2.4c-1.8,0-2.3,0.7-2.8,3.8c-0.3,2.2-1.2,4-1.8,4.3
	c-0.7,0.3-4.8,0.3-9.1,0c-6.2-0.4-8.5-0.1-11.2,1.4c-3.1,1.6-3.4,2.2-3.4,6.2c0,4.2,0.2,4.5,4.9,7.6c4.6,3,5.3,3.2,12.7,3
	c11.5-0.4,20.8,1.6,25.2,5.4c1.9,1.7,5.4,4.1,7.6,5.5c2.2,1.4,6.1,4.1,8.6,6c3.6,3,5.3,3.7,8.6,3.7c3.4,0,4.2,0.3,4.2,1.8
	c0,2.6-4.7,8.2-9.2,10.9c-4.2,2.6-7.8,6.1-8,6.8c-0.1,0.4-0.3,0.6-0.8,1.6c-1.8,1.7-2,7.4-0.7,10.1c0.6,1,3.8,3.4,7.3,5.5
	c8.8,5.1,10,6.4,10.8,11.9c1.1,7.4,2.9,10.4,8.1,13.1c4,2.1,6,2.3,14.9,2.4c11.3,0,13.8,0.9,17.2,5.9c1,1.5,3.1,3.9,4.7,5.6
	c2.2,2.2,2.9,3.9,3.1,7.3c0.2,3.6,0.9,5.1,3.9,8.2c3.1,3.2,3.7,4.5,3.7,7.9c0,3.9,0.2,4.1,6.8,8.6c3.8,2.4,8.4,6.4,10.4,8.8
	c3.3,4,8.2,9,14.7,14.7c1.5,1.4,3.1,3.6,3.7,5.2c0.9,2.3,0.7,3-1,4.9c-2.6,2.8-2.4,6.5,0.5,9.3c1.4,1.3,2.2,2.4,2,2.7
	c-1.2,1.1,2.6,9.7,5.6,12.8c5.7,6.1,7.1,9.6,7,16.9c-0.1,3.6-0.7,7.1-1.2,7.8c-3.7,4.7-3.8,14-0.3,20.6c2.4,4.4,2.4,5.2,0,14.8
	c-3.2,12.9-2.2,21.3,3,26.9c3.2,3.5,9,3.9,12.8,0.9c3.5-2.7,6.4-3.6,14.8-4.8c5.1-0.7,8.2-1.7,9.6-3c2.1-2,3.4-2.3,7.3-2
	c1.2,0.1,3.1-0.4,4.4-1.1c1.3-0.7,3.2-1.2,4.4-1c1.3,0.1,3.5-0.7,5.1-1.8c1.8-1.4,4.4-2,7.2-2c2.4,0,4.8-0.5,5.1-1
	c0.4-0.6,1.5-0.8,2.4-0.5c2,0.7,4.7-1.7,5.5-5c0.4-1.5,1.3-2.3,2.4-2.3c1,0,1.8-0.5,1.8-1c0-0.6,0.5-1,1.1-1c0.6,0,2.4-0.6,4.1-1.4
	c1.8-0.8,4.2-1.6,5.6-1.8c1.6-0.2,2.5-1,2.7-2.2c0.1-1.1,1.6-2.7,3.1-3.6c2-1.2,2.8-2.4,3.1-4.9c0.3-3.1,0.5-3.3,6.6-4.8
	c8.5-2,10.1-3,14.6-9c2.2-2.8,4.4-5.6,4.9-6.2c0.6-0.7,1-1.7,1-1.7s7.9-9.5,12.1-12.2c1.3-0.9,5.7-4.3,9.8-7.7l9.2-6.8
	c3.9-3.7,8.2-7.2,10.8-8.8c6.9-4.1,28.7-20.3,33-24.5c2.5-2.5,5.6-5,6.6-5.4c1-0.4,6-0.7,11-0.7c9.5,0,15.8-1.8,22.5-6.6
	c1.5-1,4.6-2.3,7-3c5.1-1.4,11.1-5.4,12.8-8.5c0.7-1.3,2-2.2,3-2.2c3.1,0,5.6-1.8,7.5-5.8l2-3.7l8.1,0.5c4.9,0.3,9.5,1.1,11.5,2.2
	c4.9,2.4,8.1,3,15.7,3c5.6,0,7.1,0.4,8.6,2.1c1.1,1.1,3.6,2.1,5.8,2.4c5.2,0.7,8-2,8-7.5c0-5.9,2.7-7.2,12.7-6.4
	c6.6,0.6,8.4,0.4,12.3-1.3c2.5-1.2,6-2,7.8-2s4.3-0.5,5.7-1.1c1.8-0.9,3.8-0.6,10.2,1.5c8,2.7,12.5,2.8,16.8,0.7
	c4.8-2.5,6.8-5.2,6.8-8.9C592,383.4,590.4,380.6,584.5,376.8z M388.1,98.6c9-2.5,10.2-3.3,12.9-8.6c3.5-7,4-7.4,8.3-7.4h3.9
	l-0.6,12.9c-0.3,7.1-0.7,15.1-1,17.7c-0.3,3.7-0.1,4.9,1.2,5.3c1,0.4,3.1,1.9,4.8,3.3c1.8,1.5,4.9,3,6.8,3.3c13,2,19.7,3.6,26.8,6.8
	c15.6,6.9,29.3,11.8,33.6,12.1c0.7,0.1,0.4,1.7-0.9,4.2c-1.1,2.2-2.2,6.4-2.4,9.1c-0.4,5-0.3,5.2,2.6,6.2l3,1.1l-2,4.2
	c-2.6,5.8-2.5,6.2,1.9,9.4c2.7,2,3.6,3.1,2.8,3.9c-0.6,0.6-1.6,0.8-2.2,0.5c-0.8-0.2-2.3,0.1-3.6,0.8c-1.3,0.8-4.5,1.2-7.3,1
	c-3.8-0.2-6.4,0.3-9.6,1.8c-5.4,2.6-6.5,5.8-3.7,9.6c1.7,2.2,1.8,2.9,0.7,3.9c-1.9,1.7-9.8,6.3-10.9,6.3c-0.2,0.2-0.5,0.3-0.8,0.5
	l-0.1,0.1c-0.4,0.5-1,1.2-1.6,2.2c-2.5,3.8-4.7,10.2-3.7,11.2c0.4,0.4-0.2,0.2-1.4-0.4c-1.2-0.6-2.8-2.2-3.7-3.5
	c-3.3-5.2-8.6-6.4-12.6-2.9c-2.6,2.2-3.6,2.4-7.8,1.9c-7.1-1-15.5-4.4-18.3-7.6c-6.4-7.2-12.7-13.4-15.7-15
	c-4.6-2.6-7.4-5.6-9.1-9.5c-0.8-2-2.5-4.2-3.9-5.1c-3.3-2.2-10-2.9-14.7-1.6c-2,0.6-4,0.8-4.2,0.6c-0.3-0.2,1.3-2.7,3.4-5.6
	c6-7.7,7.4-11.2,6.7-15.5c-0.5-3-0.2-4.1,1.9-6.3c1.3-1.4,2.6-4.1,3-6c0.6-3.1,0.1-14.2-1.2-28.6
	C368.6,105.3,370.6,103.6,388.1,98.6z M375.6,225.2c-1-0.1-3.7,1.9-6,4.2c-2.2,2.4-4.8,4.5-5.5,4.7c-2.7,0.6-5.8,4.3-8.2,9.8
	c-2,4.5-6.9,9.9-8.7,9.9c-0.1,0-0.1,0.1-0.2,0.1c-0.1,0-0.1,0-0.2,0.1c-0.4,0.2-0.8,0.4-1.1,0.6c-0.1,0.1-0.3,0.1-0.4,0.2
	c-0.4,0.3-0.8,0.8-1.2,1.2c-2.5,2.7-3.1,7.1-1.2,9.1c0.4,0.4,0.7,0.8,0.7,1c0.1,0.2,0.2,0.4,0.3,0.7c0.2,0.4,0.4,0.7,0.5,1.1
	c0.2,0.3,0.5,0.6,0.8,0.9c1.4,1.5,2.4,3,2.4,3.4c0,0.5-1.6,2.6-3.5,4.8c-3.1,3.4-4.1,3.9-7.7,3.9c-3.3,0-4.4-0.4-4.9-1.8
	c-1-3.1-4.4-6.9-6.2-6.9c-1,0-2.5-1.1-3.5-2.3c-1-1.3-2.2-2.1-2.9-1.9c-0.6,0.3-1.9-1.3-2.7-3.3c-1.5-3.4-16.3-20.1-16.3-18.5
	c0,0.4-1.8-0.5-3.9-1.8l-4-2.6l2.8-3c4.2-4.4,5.3-7,5.3-12.5l-14.3-44.7c-0.4-6.7-1.4-11.6-3.5-18.1c-1.7-4.9-3.1-9.3-3.2-9.8
	c-0.1-0.6-2.3-3-5.1-5.7c-2.6-2.5-4.9-5-4.9-5.4c-0.1-0.4-0.6-1.6-1.2-2.6c-1.8-3.4,0.6-9.4,3-7.4c0.6,0.5,3.5,1.8,6.4,3.1
	c2.9,1.3,8.8,4.2,12.9,6.4c4.2,2.2,8.6,4.4,10,4.8c3.3,0.8,6.4,4.6,5.8,7.3c-0.3,1.8,0.4,2.8,3.1,4.7c6,4,9.4,8.6,9.1,12.4
	c-0.3,4.8,1.3,6,5.8,4.4c3.4-1.3,3.7-1.2,5,0.8c2.5,3.7,6.1,2.6,11.8-3.5c4.4-4.7,5.4-5.3,6.1-3.9c0.5,0.9,1.5,1.7,2.2,1.7
	c1.1,0,1.1,0.5-0.1,2.8c-1.4,2.7-1.4,4.9,0,8.1c1.1,2.3,6.5,3.1,13,1.8c6.5-1.3,8.7-0.4,10.5,4.1c1.8,4.2,5.3,7.9,9.9,10.2
	c2.1,1.1,4.8,2.9,6,4.1c1.2,1.1,2.2,1.8,2.2,1.5c0-0.4,1.1,0.7,2.4,2.2c1.4,1.7,2.4,3.2,2.4,3.6c0,0.4,0.7,1.3,1.6,2
	c1.4,1,0.8,1.8-4.8,6.6c-3.5,3.1-6.8,6.9-7.5,8.6c-0.8,1.8-1.8,2.8-2.7,2.6s-1.4-0.7-1.3-1.3C381,226.6,378.4,225.3,375.6,225.2z
	 M337.3,323.7c1.7,1.4,2,6.4,0.5,7.3c-0.6,0.4-2,2.7-3.4,5.3c-1.6,3.1-3.3,5.1-5.3,6c-1.7,0.7-3,1.6-3,2c0,0.4-0.7,0.6-1.4,0.3
	c-0.8-0.3-2.7,0.2-4.4,1.2c-2.8,1.7-2.9,1.7-4.9-0.7c-1.1-1.3-2.2-3.4-2.5-4.7c-1.3-5.2-12.5-18.7-15.3-18.7c-0.8,0-2.2-0.9-3.2-2
	c-2-2.2-9.1-2.7-11.1-0.8c-2.2,2.1-0.2-4.1,2.8-9c1.6-2.4,3.4-6,4.3-8.1c0.6-1.5,1.4-2.8,2-3.3c0.3-0.6,0.7-1.2,1.2-1.7
	c0.2-0.4,0.6-0.8,1.2-1.2c6-4.3,11.4-17.4,11.8-28.8c0.2-5.2,1.1-5.2,3.5,0c1,1.9,1.8,3.8,1.9,4.1c0.4,2,1.8,3.9,2.9,3.9
	c0.8,0,2.3,0.9,3.5,1.9c1.2,1.1,3.1,2,4.4,2c1.5,0,2.2,0.6,2.2,1.7c0,2.8,4,6.1,7.4,6.1c2.6,0,3.5,0.6,4.7,3.1
	c2.5,5.6,3.9,14.4,2.5,16.1c-0.2,0.2-0.3,0.6-0.4,1c-0.1,0.5-1.2,2.7-2.4,5.1C334.5,316.5,334.7,321.6,337.3,323.7z M196.6,252.2
	c-2.2-2.4-2.5-3.1-1.5-4.7c2.5-4.2,0.9-8.8-3.3-8.8c-1.2,0-2.5-0.6-3.1-1.3c-0.6-0.7-3.7-2.5-7-4.1c-3.2-1.6-5.9-3.4-5.9-4.2
	c0-2.2,3.9-7,5.7-7c0.9,0,3.2,1,5.1,2c1.8,1.2,4.3,2.8,5.4,3.8s9.4,5.6,18.4,10.2c9.2,4.6,17.3,9,18.1,9.8c0.9,0.7,3.1,1.8,5,2.4
	c1.8,0.7,4.3,1.7,5.4,2.2c6,2.6,15.6,5.8,19.2,6.2c2.3,0.4,5.3,1.2,6.6,1.8c7.6,4,15.7,8.4,17.7,9.7c1.3,0.8,3.9,1.8,5.8,2.2
	c2.6,0.6,7.1,2.2,10.5,4c1.3,0.7-5.2,11.5-9.6,16c-2.9,2.9-4.9,6.2-4.9,8.3c0,0.8-1.3,2.8-2.8,4.6c-1.6,1.8-3.1,4.8-3.5,6.6
	c-0.8,3.7-3.1,8.8-4,8.8c-1.3,0-9.1-6.5-16.5-13.7c-15.4-15-18.5-17.6-21.4-17.6c-1.3,0-3.7-1-5.6-2.2c-1.9-1.2-6.7-3.7-10.9-5.5
	c-4.2-1.9-8.9-4.5-10.4-5.9c-6.1-5.5-8.4-7.3-11.5-9.2l-3.1-1.8l2.4-2.9C199.9,258.3,199.9,255.7,196.6,252.2z M189.2,210.5
	c-0.4-1.5,0-1.9,1.3-1.9c1,0,2.7-1.1,4-2.5c2.2-2.3,2.6-2.4,12.6-2.1l10.2,0.3l12.7,6c7,3.3,14.2,6.4,15.9,6.6
	c1.8,0.3,5,1.2,7.1,1.8c4.3,1.5,14.5,7.4,14.2,8.3c-0.2,0.5,2,3.2,8.6,10.4c1.1,1.2,3,2.7,4.4,3.4c1.3,0.7,5,3.3,8.3,5.9
	c3.2,2.5,7.3,5.4,9.1,6.4c2.9,1.7,3.1,2.2,3.1,7.2c0,2.9-0.3,6.3-0.6,7.4l-0.6,2l-6.3-2.2c-3.5-1.3-6.7-2.7-7-3.2
	c-0.3-0.6-2.9-1.8-5.9-3c-2.8-1.1-6.8-3-8.8-4.3c-4.5-2.9-8.4-4.3-13.4-4.9c-2.2-0.3-6.4-1.6-9.3-2.9C225.2,238.3,200,225,193.3,220
	c-3-2.2-5.7-4.2-5.9-4.4c-0.2-0.1,0.2-0.9,0.9-1.8C189.2,213.1,189.5,211.5,189.2,210.5z M137.5,44.4c-6.2-2.3-8.6-4.7-8.6-8.8
	c0-3.4,4.7-7.4,9.6-8.2c15.6-2.5,19.5-3.7,29-8.8c5.4-2.9,10.8-5.4,12.2-5.4c1.3,0,5.9,1.6,10.2,3.5c4.3,2,11.9,5.5,16.9,7.8
	c9.5,4.5,14.8,5.4,20.4,3.2c1.5-0.6,9-1.2,16.7-1.2c14.8-0.2,15.8-0.5,15.8-5.3c0-3.1,1.4-3.5,7-1.8c2.7,0.8,6.8,1.5,9,1.5
	c2.3,0,5.7,0.9,7.9,2.2c3.1,1.8,6,2.2,14.5,2.5c7,0.3,11,0,11.7-0.7c0.6-0.6,3.2-1.1,5.9-1.1c3.9,0,4.9-0.3,5.3-2
	c0.4-1.6,1.1-1.8,3.1-1.3c1.4,0.3,2.7,1,2.8,1.5c0.2,0.4,1,0.8,1.7,0.8s1.5,0.6,1.8,1.2c0.2,0.9,3.1,1.3,9.9,1.3
	c10.4,0,12.3,1,12.3,6.2c0.1,1.4,1,5,2,7.9c1.1,2.9,2,5.8,2.2,6.4c0.1,0.5,0.9,1.8,1.8,2.7c1.1,1.2,1.5,2.6,1,3.9
	c-0.7,2.6-6.7,11.9-7.8,12.4c-0.2,0.4-0.5,0.8-0.9,1.2c-0.2,1-0.3,2.7-0.5,5.7l-0.2,4.4l10.2,5.1c10,5.1,14.1,7.9,15.8,11.1
	c0.7,1.3-0.1,2.1-3.8,4c-4.9,2.5-9.8,9.1-10.1,13.5c-0.1,2.3,0.7,11.5,1.8,20.8c0.7,5.7-1.1,13.4-3.7,16.2c-1.2,1.4-2.2,4.4-2.7,8.1
	c-0.6,3.7-1.6,6.7-2.7,7.8c-1.8,1.9-2,1.9-3.6,0.2c-1-1-3.1-1.8-4.8-1.8c-3.4,0.1-11,4.7-11.8,7.3c-0.5,1.6-0.8,1.6-3.4,0.2
	c-1.7-0.8-3.7-1.2-4.8-0.8c-1.4,0.4-2-0.1-2.3-2.2c-0.5-2.5-8.8-12-10.5-12c-0.4,0-1.1-1.7-1.5-3.6c-0.7-3.8-6.2-10.1-8.9-10.1
	c-1.8,0-11-4.6-13.3-6.6c-1-0.8-1.8-1.1-1.8-0.6s-0.4,0.4-0.8-0.1c-1.5-2-17.8-9.4-19.4-8.8c-3.1,1.1-8.3,8.5-7.8,11
	c0.6,2.9-0.8,1.7-3-2.8c-1.1-2.2-3.3-4.1-6.5-5.8c-8.5-4.3-11.7-6.4-13-8.1c-1.5-1.8-7-2.2-10-0.7c-1.4,0.8-2.9,0.6-5.6-0.6
	c-2-0.9-7.3-2-11.8-2.3c-5.3-0.6-9.3-1.6-11.5-2.8c-1.8-1.2-4-2-4.7-2s-2.2-1.2-3.6-2.5c-1.7-1.8-3.1-2.3-4.9-2.2
	c-2.3,0.4-2.6,0.1-3.1-3.4c-0.7-5-2.4-6.7-11.5-11.6c-4.2-2.2-7.4-4.4-7.2-4.7c0.7-1.1-5.4-7.8-6.9-7.8c-0.8,0-1.4-0.4-1.4-0.9
	s-0.8-1.2-1.7-1.5c-1-0.3-2.9-1.7-4.3-2.9c-1.5-1.4-2.9-2.1-3.2-1.8c-0.3,0.4-0.6,0.1-0.6-0.5c0-0.7,0.4-1.2,0.8-1.2
	c0.5,0,1.5-1.8,2.2-3.9c1.2-3.5,1.1-4.4-0.4-7.6c-1-2-2-4.7-2.2-6C145.2,47.7,144,46.6,137.5,44.4z M95.8,112.8
	c-4.5,0-5,0.3-6.9,3.4c-2.3,3.7-3.9,3.7-3.9-0.1c0-1.6-1-2.9-2.8-4.1c-2.4-1.5-2.7-2-1.8-3.6c0.6-1.1,1.4-4.4,1.7-7.3
	c0.3-3.5,0.9-5.3,1.7-5.2c0.7,0.2,3.3-0.2,5.9-0.7c7.1-1.6,13.5-7.4,15.5-14.2c0.8-2.8,1.2-5.8,0.8-6.4c-0.6-1-0.4-1.1,0.7-0.1
	c2.1,2.1,7.8,1.6,10.4-0.9c1.3-1.2,2.2-2.8,2.2-3.6c0-1,0.3-1.2,0.8-0.5c0.4,0.5,1.8,1.8,3.1,2.6c1.6,1.1,4.4,1.7,8.3,1.7
	c3.8,0,7.2,0.7,9.8,1.9c6.5,3.2,14.4,9.5,15.9,12.7c0.8,1.7,2.4,3.4,3.6,3.9c1.1,0.4,2.6,1.6,3.4,2.4c0.8,1,3.2,2.5,5.4,3.4
	c5,2.2,6.2,3.7,7,8.5c0.7,4.3,3.8,10.1,5.6,10.1c0.7,0,2-0.6,3-1.4c1.6-1.1,2.3-0.9,6.2,1.8c4,2.6,5.6,3.1,13.8,3.6
	c5.7,0.4,10.5,1.3,12.4,2.2c4.2,2.2,9,2.9,12,1.8c1.9-0.7,3.2-0.4,6.3,1.6c2.2,1.4,4.8,3.3,6,4.3c1.1,1,2.7,1.8,3.6,1.8
	c1.8,0,7.2,4.7,7.4,6.3c0.1,0.5,1.1,2,2.2,3.3c1.5,1.7,2.7,2.2,4.8,1.9c1.9-0.3,3,0.1,3.6,1.3c0.4,1,2.6,3.7,5,6.1l10.9,30.9
	c0,7.9,2,15,6.5,23.3c5.9,10.5,6.9,13,7.6,17.8c0.6,3.8,0.3,5.2-1.5,8.1c-3.9,6.3-6.6,6.4-11.7,0.5c-12.5-14.8-19.7-19.7-32.2-21.9
	c-1.8-0.3-8.8-3.3-15.3-6.6l-11.9-6l-11.1,0.1c-8.9,0.2-11.4-0.1-12.4-1.3c-0.7-0.8-1.8-1.5-2.5-1.5c-0.8,0-1.4-0.5-1.4-1
	c0-0.6-0.6-1-1.3-1c-1.2,0-1.8-0.6-8.7-8c-2.1-2.2-4.9-4-7.7-4.7c-2.3-0.7-5.6-2-7.1-3.2c-3.6-2.5-10.2-2.6-16.4-0.3
	c-5.6,2.2-12.5,1.7-16.3-1.1c-1.4-1.1-4.6-5-7.1-8.7c-5.5-8-9.6-11.7-14.4-12.8c-2.3-0.6-3.6-1.5-3.8-2.7c-0.2-1.1-0.9-2.4-1.5-2.9
	c-3.1-2.6-3.8-6-2.5-11.6c1.3-6,0.3-10.3-2.5-10.3c-1.4,0-1.4-0.3,0-2.9c2-3.9,1.8-5.6-1-8.3C101.2,113.3,99.7,112.8,95.8,112.8z
	 M126.9,369.3l-2,3l-2.2-2c-6.5-6.2-10.9-7.7-18.1-6.2c-5.6,1.2-14.2-0.7-17.2-3.6c-1.4-1.4-2.3-4-2.8-7.4
	c-0.9-6.9-2.4-9.1-9.2-13.4c-3-2-6.5-4.4-7.6-5.6l-2.1-2l2-2.7c1.1-1.5,3.8-3.9,6-5.4c4.7-3.1,6.2-4.6,9.2-8.8
	c1.9-2.6,2.2-4.2,2-9.8c-0.3-7.3-0.6-7.5-8.1-5.7c-2.5,0.6-3.6,0.1-6.8-2.8c-2.1-2-6.1-4.8-8.8-6.4c-2.7-1.6-6-3.9-7.2-5.3
	c-4-4.3-18.3-7.7-28.1-6.7c-4,0.4-5.8,0.1-8.2-1.4l-3-2l2.6-0.7c1.5-0.4,5.6-0.4,9.2-0.1c5.5,0.5,6.9,0.3,9.6-1.4
	c2.4-1.6,3.2-2.7,3.2-5s0.5-2.9,1.8-2.9c2.9,0,4.3-2.5,3.7-6.8c-0.3-2.4,0-2.8,0.6-3.9c0.3-0.5,0.1-0.3,0.4-0.6
	c0.1-0.6,0.7-2.4,2.2-4.7c1.6-2.2,3.8-6.4,5.1-9.4c1.2-2.9,2.7-5.7,3.2-6c0.1-0.5,0.1-0.4,0.3-0.8c0.6-0.9,2.8-7.1,5-8.9
	c1.3-1.1,2.3-1.4,3.2-0.8c2.2,1.4,5.4,1,7-0.9c3.4-3.8,3.2-12.3-0.4-15.9c-1.7-1.7-1.7-1.8-0.1-1.8c0.9,0,3.6,0.7,6,1.6
	c5.3,1.8,8.1,1.3,9.9-2c0.7-1.4,2.3-3.1,3.6-3.9c2.6-1.8,2.9-5.5,0.8-7.7c-0.9-0.9-3.4-2-5.7-2.5c-6.6-1.8-12.5-5.2-11.8-6.8
	c1.1-2.5,0.4-7.1-1.2-8.3c-2.4-1.8-1-9.2,1.8-9.7c1.2-0.2,5-0.9,8.5-1.5c3.5-0.6,8.6-1.7,11.2-2.5c6.8-2,17.2-1.5,20.7,1.1
	c1.5,1.1,4.8,5,7.4,8.7c6.4,9.4,7.9,10.7,13.6,12.6c6.2,2,13,2.1,18.4,0.1c5.5-2,8.1-1.9,12.8,0.4c2.2,1.1,5.2,2.2,6.6,2.5
	c2.4,0.5,7.9,5.3,7.9,6.9c0,0.7,4.4,4.3,7,5.9c1.7,0.9,1.4,1.3-2.8,3.4c-3.6,1.9-4.8,2.9-5,5c-0.2,1.6-0.7,2.7-1.2,2.7
	s-1.2,1-1.5,2.2c-0.4,1.3-2.3,4-4.4,6.1c-3.8,4.1-5.9,8.7-5.9,13.3c0,2.3,1,3.1,7.6,6.7c10.1,5.5,10.9,6.4,10.2,9.9
	c-0.4,2.2,0.1,3.3,2.3,5.6l2.8,2.8l-3.2,4.1c-1.8,2.3-4.7,6-6.6,8c-2,2.1-3.2,4.3-2.9,4.8c0.3,0.5-1.3,2.6-3.5,4.7
	c-3.6,3.5-3.9,4.3-3.3,7c0.4,1.8,2.3,4.7,4.4,6.6c4.2,4.1,7.8,9.7,7.8,12.1c0,1.6-5.7,9.1-9.9,13.3c-15.5,14.8-16.7,16.4-17.1,24.1
	c-0.2,4.5-0.5,5.2-4.5,8.1c-2.2,1.8-7.2,5-11,7.2C133.2,361.8,129.6,364.9,126.9,369.3z M182.5,468.1c-2.2-2.4-3.8-5-3.8-6.4
	c0-3.2-2.5-9.1-4-9.1c-0.8,0-0.5-0.8,0.6-2c1.4-1.5,1.7-3,1.3-7.3l-0.5-5.4L163,424.8c-7.2-7.3-15.1-14.6-17.7-16.3
	c-4.1-2.6-4.5-3.3-4-5.8c0.3-1.7,0-3.4-0.7-4.3c-0.4-0.9-0.4-1-0.7-1.4c-0.2-0.3-0.5-1.1-2.5-2.5c-3.8-2.6-3.9-2.7-3.6-8.9
	c0.1-3.2-0.3-4.4-2-5.6c-4.5-3.1,1.3-10.5,15.4-19.4c15.5-9.9,15.8-10.2,15.8-18.2c0-5,2-8.9,6.3-11.8c3.8-2.6,12.9-12.4,16.4-17.7
	c5.2-7.6,4.5-14.7-1.8-20.8c-1.3-1.2-2.3-2.5-2.3-2.9c0-0.5-0.7-1.5-1.5-2.2c-1.9-2-1.8-2.4,1-5.5c1.4-1.5,2.4-3,2.4-3.5
	c0-1.3,5.1-7,6.2-7c0.6,0,2.4,1.1,4,2.4c1.7,1.3,3.4,2.8,4.1,3.4c0.7,0.5,1.7,1,2.2,1c0.6,0,1.3,0.7,1.6,1.5c0.4,0.8,1,1.5,1.5,1.5
	c0.4,0,2.7,1.4,5.2,2.9c2.3,1.7,6.2,3.6,8.5,4.5c2.3,0.8,5.8,2.3,7.7,3.4c1.8,1.2,5.5,2.9,8.1,3.9c2.5,1,6,3.4,7.6,5.3
	c1.7,1.9,3.4,3.4,3.8,3.4s4.4,3.7,9,8.1c4.5,4.5,9.7,9,11.3,10.1c3.4,2,3.5,3,0.7,4.7c-3.5,2.1-11.3,10.6-12.7,14
	c-1.7,3.9-2,12.2-0.6,14.8c1.3,2.2,4.1,22.7,4.7,33.6c0.6,10.1-0.3,12.1-6.6,14.7c-11.5,4.9-16.5,7.4-18.3,9.3c-3,3-2.6,9.3,1,18.6
	c3.4,9,3.4,11.3-0.1,11c-17.3-1.8-17.6-1.7-25.6,2.1c-5.2,2.5-8.7,5-10.9,7.8c-4.2,5.1-9,15-8.5,17.8
	C187.7,473,186.4,472.2,182.5,468.1z M341.3,467c-0.5,0.4-2.4,1.8-4.3,3.1c-3.4,2.4-7.2,5.5-9.3,7.3c-0.6,0.6-2.6,2.1-4.5,3.4
	c-1.9,1.3-4,2.7-4.4,3.3c-0.3,0.2-0.4,0.2-0.5,0.3c-1.1,1-6.3,5.6-12.1,13.4c-5.9,8-7,8.9-12.8,9.9c-8,1.5-10.9,3.2-11.7,6.9
	c-0.4,2.3-1.3,3.7-3,4.3c-1.4,0.6-2.3,1.7-2.3,2.9s-0.7,2-2,2c-1.1,0-2.8,0.9-4,2c-1.1,1.1-2.6,1.8-3.3,1.5c-0.8-0.3-1.7-0.1-2,0.5
	s-1.2,0.8-2,0.5c-2.3-0.9-4.3,0.5-4.3,3.2c0,2.8-0.9,4.4-2.5,4.7c-9.4,1.8-15.6,3.4-15.8,4.2c-0.2,0.5-2,1-4.1,1
	c-1.9,0-4.2,0.6-4.8,1.3c-0.6,0.8-2.2,1.2-3.7,1c-1.8-0.3-4.8,0.6-8.5,2.5c-3.6,2-7.1,3-9.8,3c-5.3,0-11.1,1.7-14.6,4.2l-2.8,2
	l-2.3-2.8c-2-2.3-2.3-3.6-2.2-8.7c0.1-3.2,0.8-8.2,1.6-10.8c1.8-6.9,1.6-14-0.7-18.9c-2.4-5.4-2.4-9.5,0-13.6c1.5-2.4,2-4.9,2-10.3
	c0-8.3,3.3-21,7.3-28.1c2.5-4.6,7.5-9.6,9.5-9.6c0.6,0,3.3-1.1,6.2-2.3c5-2.4,5.1-2.4,12.2-1c3.9,0.9,8.3,1.3,9.7,0.9
	c7.9-2,9.1-9.5,3.4-21.5c-3.3-6.9-3.4-7.5-2-9.7c1-1.5,4.9-3.6,11.1-6c10.7-4.2,14.5-7.2,15.5-12.8c0.6-2.9-0.8-22.4-2-29.7
	c-0.1-0.8-0.6-4.1-0.9-7.3c-0.4-3.2-1.4-7.7-2.2-9.9c-1.4-3.8-1.4-4.4,0.6-8.7c2-4.5,8.7-12.5,12.1-14.3c1-0.5,3.8-1.1,6.2-1.4
	c2.7-0.2,5-1.1,5.8-2c0.5-0.8,1.1-1.2,1.3-1.1c0.2-0.2,0.5-0.3,0.8-0.5c0.5-0.3,1-0.6,1.6-0.8c1.4-1.1,2.3-1,3.8,0.5
	c0.4,0.2,0.8,0.6,1.1,0.9c0.5,0.4,1.1,0.7,1.5,0.7c0.3,0,0.6,0.2,0.8,0.4c0.7,0.3,1.3,0.8,1.7,1.3c1.2,0.6,3.2,3,6,7.1
	c5.3,7.8,8.1,12,9.4,14.3c0.2,0.2,0.3,0.4,0.5,0.5l0.7,0.7c0.3,0.2,0.5,0.5,0.7,0.8c0.1,0.1,0.2,0.2,0.2,0.3
	c0.5,0.4,0.9,0.9,1.2,1.4c0.2,0.1,0.3,0.3,0.4,0.4c0.6,20.7,0.7,41.5,1.9,62.2c0.6,9.5,7.5,13.9,13.6,20.3
	c6.8,7.2,12.7,15.2,17.8,23.8c0.3,0.5,0.6,0.8,0.9,1.1C345.9,463.4,343.1,465.5,341.3,467z M453.5,403.1c-0.9,1-2.4,1.7-3.5,1.7
	c-1,0-2.8,1.2-4.1,2.6c-4.3,5.2-6.9,7.1-10.8,8.2c-2.2,0.6-6.9,2.7-10.5,4.8c-7.2,4.3-11.1,5.6-12,4c-0.9-1.3-3.9-1.4-7.8-0.2
	c-1.7,0.5-5.4,1.5-8.3,2c-3.5,0.7-6,1.8-7.6,3.5l-5.2,5.8c-2,2.1-19.3,14.6-24.2,17.6c-0.5,0.3-2.7,1.9-5.4,4
	c-0.1-0.2-0.1-0.3-0.2-0.5c-4.5-7.6-9.6-14.8-15.5-21.4c-3-3.4-6.2-6.6-9.5-9.8c-1.7-1.6-3.6-3.1-4.7-5.2c-1.1-2.3-0.9-5.4-0.9-7.9
	c-0.6-19.5-1.2-39-1.8-58.5c0.5-0.5,1.1-1.1,1.7-1.8c1-1.2,4.8-2.8,6.3-2.8c2.9,0,8.5-3.1,9.5-5.4c1-2,1.2-2.2,5.2-1
	c2.2,0.7,6,2.2,8.4,3.2c2.3,1.1,5.4,2.1,6.7,2.5c2.5,0.6,14.4,11.6,18.3,16.9c2,2.6,3.5,3.3,13.1,5.6c7.5,1.8,11.7,3.2,13.8,5
	c1.9,1.7,4,2.4,6.7,2.4c3.1,0,4.5,0.7,7.5,3.7c2,2,4,4.4,4.3,5.3c0.4,0.8,2.7,2.4,5.4,3.6c2.5,1.3,6,3.2,7.6,4.5
	c1.7,1.2,5,2.4,7.3,2.7c2.4,0.2,6.1,1.1,8.1,1.9C454.9,401.4,455,401.6,453.5,403.1z M586.5,388.7c0,0.1-0.1,0.2-0.2,0.3
	c-0.1,0.2-0.2,0.3-0.4,0.4c-0.4,0.2-0.8,0.3-1.2,0.5c-0.3,0.1-0.6,0.2-0.8,0.2c-0.1,0-0.1,0-0.2,0c-2.5,1.1-9,0.8-14.3-1
	s-7.5-2-13.7-1.5c-4.4,0.4-8.7,1.5-10.6,2.5c-2.5,1.5-5.2,1.8-12.5,1.8c-9.3,0-14.9,1.4-16.6,4c-0.5,0.8-1.1,3.4-1.4,6l-0.5,4.6
	l-3.5-2.4c-3-2.2-4.7-2.5-12.3-2.8c-7.2-0.2-9.7-0.7-13.6-2.7c-3.8-2-6.2-2.5-12.1-2.5c-8.8-0.2-17.1-1.7-20.2-3.6
	c-1.2-0.8-3.8-1.5-5.8-1.5s-4.7-0.8-6-1.9c-1.5-1-4.5-2.7-6.8-3.9c-0.7-0.4-1.4-0.8-2-1.2c-1.6-0.7-2.7-2.3-3.8-3.7
	c-0.1-0.1-0.1-0.1-0.2-0.2c-0.5-0.5-0.9-1-1.4-1.5c-0.2-0.2-0.4-0.3-0.6-0.5c-1-0.5-2.5-1.7-3.9-3.2c-2.5-2.8-3.8-3.4-6.9-3.4
	c-2.3,0-5.1-0.9-7.1-2.2c-1.8-1.2-7.8-3.2-13.4-4.6c-10-2.3-10.1-2.4-13.4-6.9c-1.8-2.5-4.9-5.9-6.9-7.3c-2-1.6-4.5-3.8-5.6-5.1
	c-1.9-2.1-18.5-9-21.7-9c-1.3,0-1.4-1.2-0.8-6.7c0.6-6,0.4-7.1-1.5-9.6l-2-2.8l2-4.6c2.3-5.5,2.4-19.8,0.2-22.5
	c-0.4-0.6-0.7-1-0.7-1.3c0-0.1-0.1-0.2-0.1-0.2c-0.1-0.1-0.1-0.2-0.1-0.3c-0.1-0.2-0.1-0.4-0.1-0.6v-0.5c-0.1-0.6,0.8-1.6,2.8-3.2
	c2.1-1.6,4.8-4.6,6-6.8c2.5-4.8,2-8.3-1.8-12.3c-3.1-3.2-2.5-4.9,2.5-7.2c3.4-1.6,4.6-2.9,7.1-8.2c2.8-6,6.6-10.7,8.5-10.7
	c0.5,0,2.2-1.4,3.9-3.1c2.7-2.7,3.1-2.9,4.3-1.6c1.1,1.6,3.2,2.1,6.6,1.8c2.2-0.1,5.4-3,6.2-5.6c0.7-2.2,12.5-14.1,14-14.1
	c0.6,0,1.3,0.3,1.6,0.7c1.3,1.2,10.7,4.2,15.3,4.8c4.6,0.6,12.7-1,12.7-2.5c0-0.5,2.2,1.3,4.9,3.9c2.7,2.6,4.9,5.2,4.9,5.8
	c0,2.6,8.6,4.2,10.5,1.8c0.6-0.6,1.6-2.8,2.2-4.9c1.6-5,3.3-4.1,3.7,1.8c0.2,4.2,0.7,5.1,3.4,6.9c1.8,1.2,5.4,2.8,8,3.7
	c6.2,2.1,8.9,4.3,4.4,3.6c-1.8-0.3-2.9,0-2.9,0.7c0,0.7-1,2.4-2.2,4c-2,2.8-2,2.9-0.3,4.9c1,1.1,2.5,2.2,3.4,2.4
	c1,0.3,1.7,1.3,1.5,2.2c-0.1,0.9,0.2,2.5,0.8,3.6c1,2,7.5,8.2,8.6,8.3c0.4,0,2.2,2,4.3,4.4c2.9,3.6,3.7,5.7,4.5,10.8
	c1.4,9.8,3.3,12.9,15.1,25c16.1,16.3,20.3,20.1,23.4,20.8c1.6,0.4,4.7,1.4,6.9,2.1c5.4,2,10.1,1.2,13.4-2.1c2.9-2.9,6.7-3,7.2-0.1
	c0.5,2.2-1.4,6-4.4,9.4c-1.5,1.6-2.2,3.7-2.2,5.9c0,1.9-0.4,3.9-1,4.5c-0.8,0.8,0.1,7.7,1.3,8.9c0.3,0.2,4,0.9,8.2,1.4
	s9.1,1.7,10.8,2.5c3,1.6,3.1,1.8,2.5,6c-0.4,2.4-0.7,5-0.7,5.7c0,1.5,4.4,8.1,5.5,8.1c1.6,0,7.5,5.2,7.5,6.5
	C586.8,388.2,586.7,388.5,586.5,388.7z"/>
<g fill="currentColor" stroke-width="1" stroke="currentColor" class="district Kreis10">
	<path d="M279.1,182.3c0,7.9,2.1,15,6.5,23.3c5.9,10.5,6.9,13,7.6,17.8c0.6,3.8,0.3,5.2-1.5,8.1
		c-3.9,6.3-6.6,6.4-11.7,0.5c-12.5-14.8-19.7-19.7-32.2-21.9c-1.9-0.3-8.8-3.3-15.3-6.6l-11.9-6l-11.1,0.1
		c-8.9,0.2-11.4-0.1-12.4-1.3c-0.7-0.8-1.9-1.5-2.5-1.5c-0.8,0-1.4-0.5-1.4-1c0-0.6-0.6-1-1.3-1c-1.2,0-1.9-0.6-8.7-8
		c-2.1-2.2-4.9-4-7.7-4.7c-2.3-0.7-5.6-2.1-7.1-3.2c-3.6-2.5-10.2-2.6-16.4-0.3c-5.6,2.1-12.5,1.7-16.3-1.1c-1.4-1.1-4.6-5-7.1-8.7
		c-5.5-8-9.6-11.7-14.4-12.8c-2.3-0.6-3.6-1.5-3.8-2.7c-0.2-1.1-0.9-2.4-1.5-2.9c-3.1-2.6-3.8-6-2.5-11.6c1.3-6.1,0.3-10.3-2.5-10.3
		c-1.4,0-1.4-0.3,0-2.9c2.1-3.9,1.9-5.6-1-8.3c-1.9-2-3.3-2.4-7.2-2.4c-4.5,0-5,0.3-6.9,3.4c-2.3,3.7-3.9,3.7-3.9-0.1
		c0-1.6-1-2.9-2.8-4.1c-2.4-1.5-2.7-2-1.8-3.6c0.6-1.1,1.4-4.4,1.7-7.3c0.3-3.5,0.9-5.3,1.7-5.2c0.7,0.2,3.3-0.2,5.9-0.7
		c7.1-1.6,13.5-7.4,15.5-14.3c0.8-2.8,1.2-5.8,0.8-6.4c-0.6-1-0.4-1.1,0.7-0.1c2.1,2.1,7.8,1.6,10.3-0.9c1.3-1.2,2.2-2.8,2.2-3.6
		c0-1,0.3-1.2,0.8-0.5c0.4,0.5,1.8,1.8,3.1,2.6c1.6,1.1,4.4,1.7,8.3,1.7c3.8,0,7.2,0.7,9.8,2c6.5,3.2,14.4,9.5,15.9,12.7
		c0.8,1.7,2.4,3.4,3.6,3.9c1.1,0.4,2.6,1.6,3.4,2.4c0.8,1,3.2,2.5,5.4,3.4c5,2.1,6.2,3.7,7,8.5c0.7,4.3,3.8,10.1,5.6,10.1
		c0.7,0,2.1-0.6,3-1.4c1.6-1.1,2.3-0.9,6.2,1.8c4,2.6,5.6,3.1,13.8,3.6c5.7,0.4,10.5,1.3,12.4,2.2c4.2,2.2,9,2.9,12,1.8
		c2-0.7,3.2-0.4,6.3,1.6c2.1,1.4,4.8,3.3,6,4.3c1.1,1,2.7,1.8,3.6,1.8c1.8,0,7.2,4.7,7.4,6.3c0.1,0.5,1.1,2.1,2.1,3.3
		c1.5,1.7,2.7,2.1,4.8,1.9c2-0.3,3,0.1,3.6,1.3c0.4,1,2.6,3.7,5,6.2"/>
</g>
<g fill="currentColor" stroke-width="1" stroke="currentColor" class="district Kreis6">
	<path d="M285.7,181.2c-0.4-6.7-1.4-11.6-3.5-18.1c-1.7-4.9-3.1-9.3-3.2-9.8c-0.1-0.6-2.3-3-5.1-5.7
		c-2.6-2.5-4.9-5-4.9-5.4c-0.1-0.4-0.6-1.6-1.2-2.6c-1.8-3.4,0.6-9.4,3-7.4c0.6,0.5,3.5,1.9,6.4,3.1c2.9,1.3,8.8,4.2,12.9,6.4
		c4.2,2.2,8.6,4.4,10,4.8c3.3,0.8,6.3,4.6,5.8,7.3c-0.3,1.9,0.4,2.8,3.1,4.7c6.1,4,9.4,8.6,9.1,12.4c-0.3,4.8,1.3,6,5.8,4.4
		c3.4-1.3,3.7-1.2,5,0.8c2.5,3.7,6.1,2.6,11.8-3.5c4.4-4.7,5.4-5.3,6.2-3.9c0.5,0.9,1.5,1.7,2.2,1.7c1.1,0,1.1,0.5-0.1,2.8
		c-1.4,2.7-1.4,4.9,0,8.1c1.1,2.3,6.5,3.1,13,1.9c6.4-1.3,8.7-0.4,10.5,4.1c1.8,4.2,5.3,7.9,9.9,10.3c2.1,1.1,4.8,2.9,6.1,4.1
		c1.2,1.1,2.1,1.8,2.1,1.5c0-0.4,1.1,0.7,2.4,2.2c1.4,1.7,2.4,3.2,2.4,3.6s0.7,1.3,1.6,2c1.4,1,0.8,1.9-4.8,6.6
		c-3.5,3.1-6.8,6.9-7.5,8.6c-0.8,1.8-1.9,2.8-2.7,2.6s-1.4-0.7-1.3-1.3c0.3-1-2.3-2.2-5.1-2.3c-1-0.1-3.7,1.9-6,4.2
		c-2.2,2.4-4.8,4.5-5.5,4.7c-2.7,0.6-5.8,4.3-8.2,9.8c-2,4.5-6.9,9.9-8.7,9.9c-0.1,0-0.1,0.1-0.2,0.1s-0.1,0-0.2,0.1
		c-0.4,0.2-0.8,0.4-1.1,0.6c-0.1,0.1-0.3,0.1-0.4,0.2c-0.4,0.3-0.8,0.8-1.2,1.2c-2.5,2.7-3.1,7.1-1.2,9.1c0.4,0.4,0.7,0.8,0.7,1
		c0.1,0.2,0.2,0.4,0.3,0.7c0.2,0.4,0.4,0.7,0.5,1.1c0.2,0.3,0.5,0.6,0.8,0.9c1.4,1.5,2.4,3,2.4,3.4c0,0.5-1.6,2.6-3.5,4.8
		c-3.1,3.4-4.1,3.9-7.7,3.9c-3.3,0-4.4-0.4-4.9-1.9c-1-3.1-4.4-6.9-6.2-6.9c-1,0-2.5-1.1-3.5-2.3c-1-1.3-2.2-2.1-2.9-2
		c-0.6,0.3-1.9-1.3-2.7-3.3c-1.5-3.4-16.3-20.1-16.3-18.5c0,0.4-1.8-0.5-3.9-1.9l-4-2.6l2.8-3c4.2-4.4,5.3-7,5.3-12.5"/>
</g>
<g fill="currentColor" stroke-width="1" stroke="currentColor" class="district Kreis11">
	<path d="M137.5,44.4c-6.2-2.3-8.6-4.7-8.6-8.8c0-3.4,4.7-7.4,9.6-8.2c15.6-2.5,19.5-3.7,29-8.8
		c5.4-2.9,10.8-5.4,12.2-5.4c1.3,0,5.9,1.6,10.3,3.5c4.3,2,11.9,5.5,16.9,7.8c9.5,4.5,14.8,5.4,20.4,3.2c1.5-0.6,9-1.2,16.7-1.2
		c14.8-0.2,15.8-0.5,15.8-5.3c0-3.1,1.4-3.5,7-1.8c2.7,0.8,6.8,1.5,9,1.5c2.3,0,5.7,0.9,7.9,2.1c3.1,1.8,6,2.2,14.4,2.5
		c7,0.3,11,0,11.7-0.7c0.6-0.6,3.2-1.1,5.9-1.1c3.9,0,4.9-0.3,5.3-2c0.4-1.6,1.1-1.8,3.1-1.3c1.4,0.3,2.7,1,2.8,1.5
		c0.2,0.4,1,0.8,1.7,0.8s1.5,0.6,1.8,1.2c0.2,0.9,3.1,1.3,9.9,1.3c10.4,0,12.3,1,12.3,6.2c0.1,1.4,1,5,2,7.9
		c1.1,2.9,2.1,5.8,2.2,6.3s0.9,1.8,1.8,2.7c1.1,1.2,1.5,2.6,1,3.9c-0.7,2.6-6.7,11.8-7.8,12.4c-0.2,0.4-0.5,0.8-0.9,1.2
		c-0.2,1-0.3,2.7-0.4,5.7l-0.2,4.4l10.2,5.1c10,5.1,14.1,7.9,15.8,11.1c0.7,1.3-0.1,2.1-3.8,4c-4.9,2.5-9.8,9.1-10.2,13.5
		c-0.1,2.3,0.7,11.5,1.8,20.8c0.7,5.7-1.1,13.4-3.7,16.2c-1.2,1.4-2.2,4.4-2.7,8.1c-0.6,3.7-1.6,6.7-2.7,7.8c-1.8,1.9-2,1.9-3.6,0.2
		c-1-1-3.1-1.8-4.8-1.8c-3.4,0.1-11,4.7-11.8,7.3c-0.5,1.6-0.8,1.6-3.4,0.2c-1.7-0.8-3.7-1.2-4.8-0.8c-1.4,0.4-2-0.1-2.3-2.1
		c-0.5-2.5-8.8-12-10.4-12c-0.4,0-1.1-1.7-1.5-3.6c-0.7-3.8-6.2-10.1-8.9-10.1c-1.8,0-11-4.6-13.3-6.6c-1-0.8-1.8-1.1-1.8-0.6
		s-0.4,0.4-0.8-0.1c-1.5-2.1-17.8-9.4-19.4-8.8c-3.1,1.1-8.3,8.5-7.8,11c0.6,2.9-0.8,1.7-3-2.8c-1.1-2.2-3.3-4.1-6.5-5.8
		c-8.5-4.3-11.7-6.3-13-8.1c-1.5-1.9-7-2.2-10-0.7c-1.4,0.8-2.9,0.6-5.6-0.6c-2.1-0.9-7.3-2-11.8-2.3c-5.3-0.6-9.3-1.6-11.5-2.8
		c-1.9-1.2-4-2.1-4.7-2.1s-2.2-1.2-3.6-2.5c-1.7-1.8-3.1-2.3-4.9-2.1c-2.3,0.4-2.6,0.1-3.1-3.4c-0.7-5-2.4-6.7-11.5-11.6
		c-4.2-2.2-7.4-4.4-7.2-4.7c0.7-1.1-5.4-7.8-6.9-7.8c-0.8,0-1.4-0.4-1.4-0.9s-0.8-1.2-1.7-1.5c-1-0.3-2.9-1.7-4.3-2.9
		c-1.5-1.4-2.9-2.1-3.2-1.9c-0.3,0.4-0.6,0.1-0.6-0.5c0-0.7,0.4-1.2,0.8-1.2c0.5,0,1.5-1.8,2.1-3.9c1.2-3.5,1.1-4.4-0.4-7.6
		c-1-2-2-4.7-2.2-6.1C145.2,47.7,144,46.7,137.5,44.4z"/>
</g>
<g fill="currentColor" stroke-width="1" stroke="currentColor" class="district Kreis12">
	<path d="M388.1,98.6c9-2.5,10.3-3.3,12.9-8.6c3.5-7,4-7.4,8.3-7.4h3.9l-0.6,12.9c-0.3,7.1-0.7,15.1-1,17.7
		c-0.3,3.7-0.1,4.9,1.2,5.3c1,0.4,3.1,1.9,4.8,3.3c1.8,1.5,4.9,3,6.8,3.3c13,2,19.7,3.6,26.8,6.8c15.6,6.9,29.3,11.8,33.6,12.1
		c0.7,0.1,0.4,1.7-0.9,4.2c-1.1,2.1-2.2,6.3-2.4,9.1c-0.4,5-0.3,5.2,2.6,6.2l3,1.1l-2,4.2c-2.6,5.8-2.5,6.2,1.9,9.4
		c2.7,2.1,3.6,3.1,2.8,3.9c-0.6,0.6-1.6,0.8-2.2,0.5c-0.8-0.2-2.3,0.1-3.6,0.8c-1.3,0.8-4.5,1.2-7.3,1c-3.8-0.2-6.3,0.3-9.6,1.9
		c-5.4,2.6-6.5,5.8-3.7,9.6c1.7,2.2,1.8,2.9,0.7,3.9c-1.9,1.7-9.8,6.3-10.9,6.3c-0.2,0.2-0.5,0.3-0.8,0.5l-0.1,0.1
		c-0.4,0.5-1,1.2-1.6,2.2c-2.5,3.8-4.7,10.2-3.7,11.2c0.4,0.4-0.2,0.2-1.4-0.4c-1.2-0.6-2.8-2.1-3.7-3.5c-3.3-5.2-8.6-6.3-12.6-2.9
		c-2.6,2.2-3.6,2.4-7.8,2c-7.1-1-15.5-4.4-18.3-7.6c-6.3-7.2-12.7-13.4-15.7-15c-4.6-2.6-7.4-5.6-9.1-9.5c-0.8-2-2.5-4.2-3.9-5.1
		c-3.3-2.2-10-2.9-14.7-1.6c-2.1,0.6-4,0.8-4.2,0.6c-0.3-0.2,1.3-2.7,3.4-5.6c6-7.7,7.4-11.2,6.7-15.5c-0.5-3-0.2-4.1,1.9-6.3
		c1.3-1.4,2.6-4.1,3-6c0.6-3.1,0.1-14.3-1.2-28.6C368.6,105.3,370.6,103.6,388.1,98.6z"/>
</g>
<g fill="currentColor" stroke-width="1" stroke="currentColor" class="district Kreis7">
	<path d="M586.5,388.7c0,0.1-0.1,0.2-0.2,0.3c-0.1,0.2-0.2,0.3-0.4,0.4c-0.4,0.2-0.8,0.3-1.2,0.5
		c-0.3,0.1-0.6,0.2-0.8,0.2l0,0l0,0c-0.1,0-0.1,0-0.2,0c-2.5,1.1-9,0.8-14.3-1s-7.5-2-13.7-1.5c-4.4,0.4-8.7,1.5-10.6,2.5
		c-2.5,1.5-5.2,1.9-12.5,1.9c-9.3,0-14.9,1.4-16.6,4c-0.5,0.8-1.1,3.4-1.4,6.1l-0.5,4.6l-3.5-2.4c-3-2.2-4.7-2.5-12.3-2.8
		c-7.2-0.2-9.7-0.7-13.6-2.7c-3.8-2-6.2-2.5-12.1-2.5c-8.8-0.2-17.1-1.7-20.2-3.6c-1.2-0.8-3.8-1.5-5.8-1.5s-4.7-0.8-6.1-1.9
		c-1.5-1-4.5-2.7-6.8-3.9c-0.7-0.3-1.4-0.8-2-1.2c-1.6-0.7-2.7-2.3-3.8-3.7c-0.1-0.1-0.1-0.1-0.2-0.2c-0.5-0.5-0.9-1-1.4-1.5
		c-0.2-0.2-0.4-0.3-0.6-0.5c-1-0.5-2.5-1.7-3.9-3.2c-2.5-2.8-3.8-3.4-6.9-3.4c-2.3,0-5.1-0.9-7.1-2.2c-1.8-1.2-7.8-3.2-13.4-4.6
		c-10-2.3-10.2-2.4-13.4-6.9c-1.8-2.5-4.9-5.9-6.9-7.3c-2-1.6-4.5-3.8-5.6-5.1c-1.9-2.1-18.5-9-21.7-9c-1.3,0-1.4-1.2-0.8-6.7
		c0.6-6,0.4-7.1-1.5-9.6l-2.1-2.8l2-4.6c2.3-5.5,2.4-19.8,0.2-22.5c-0.4-0.6-0.6-1-0.7-1.3c0-0.1-0.1-0.2-0.1-0.2
		c-0.1-0.1-0.1-0.2-0.1-0.3c-0.1-0.2-0.1-0.4-0.1-0.6s0-0.3,0-0.5c-0.1-0.6,0.8-1.6,2.8-3.2c2.1-1.6,4.8-4.6,6.1-6.8
		c2.5-4.8,2.1-8.3-1.8-12.3c-3.1-3.2-2.5-4.9,2.5-7.2c3.4-1.6,4.6-2.9,7.1-8.2c2.8-6,6.6-10.7,8.5-10.7c0.5,0,2.2-1.4,3.9-3.1
		c2.7-2.7,3.1-2.9,4.3-1.6c1.1,1.6,3.2,2.1,6.6,1.9c2.1-0.1,5.4-3,6.2-5.6c0.7-2.2,12.5-14.1,14-14.1c0.6,0,1.3,0.3,1.6,0.7
		c1.3,1.2,10.7,4.2,15.3,4.8c4.6,0.6,12.7-1,12.7-2.5c0-0.5,2.2,1.3,4.9,3.9c2.7,2.6,4.9,5.2,4.9,5.8c0,2.6,8.6,4.2,10.4,1.8
		c0.6-0.6,1.6-2.8,2.2-4.9c1.6-5,3.3-4.1,3.7,1.9c0.2,4.2,0.7,5.1,3.4,6.9c1.8,1.2,5.4,2.8,8,3.7c6.2,2.1,8.9,4.3,4.4,3.6
		c-1.8-0.3-2.9,0-2.9,0.7s-1,2.4-2.1,4c-2.1,2.8-2.1,2.9-0.3,4.9c1,1.1,2.5,2.1,3.4,2.4c1,0.3,1.7,1.3,1.5,2.2
		c-0.1,0.9,0.2,2.5,0.8,3.6c1,2,7.5,8.2,8.6,8.3c0.4,0,2.2,2,4.3,4.4c2.9,3.6,3.7,5.7,4.5,10.8c1.4,9.8,3.3,12.9,15.1,25
		c16.1,16.3,20.3,20.1,23.4,20.8c1.6,0.4,4.7,1.4,6.9,2.1c5.4,2,10.1,1.2,13.4-2.1c2.9-2.9,6.7-3,7.2-0.1c0.5,2.1-1.4,6-4.4,9.4
		c-1.5,1.6-2.2,3.7-2.2,5.9c0,2-0.4,3.9-1,4.5c-0.8,0.8,0.1,7.7,1.3,8.9c0.3,0.2,4,0.9,8.2,1.4s9.1,1.7,10.8,2.5
		c3,1.6,3.1,1.8,2.5,6.1c-0.4,2.4-0.7,5-0.7,5.7c0,1.5,4.4,8.1,5.5,8.1c1.6,0,7.5,5.2,7.5,6.5C586.8,388.3,586.7,388.6,586.5,388.7z
		"/>
</g>
<g fill="currentColor" stroke-width="1" stroke="currentColor" class="district Kreis4">
	<path d="M196.6,252.3c-2.2-2.4-2.5-3.1-1.5-4.7c2.5-4.2,0.9-8.8-3.3-8.8c-1.2,0-2.5-0.6-3.1-1.3s-3.7-2.5-7-4.1
		c-3.2-1.6-5.9-3.4-5.9-4.2c0-2.2,3.9-7,5.7-7c0.9,0,3.2,1,5.1,2.1c1.9,1.2,4.3,2.8,5.4,3.8s9.4,5.6,18.5,10.2
		c9.2,4.6,17.3,9,18.1,9.8c0.9,0.7,3.1,1.8,5,2.4c1.9,0.7,4.3,1.7,5.4,2.1c6.1,2.6,15.6,5.8,19.2,6.2c2.3,0.4,5.3,1.2,6.6,1.9
		c7.6,4,15.7,8.4,17.7,9.7c1.3,0.8,3.9,1.8,5.8,2.1c2.6,0.6,7.1,2.2,10.5,4c1.3,0.7-5.2,11.5-9.6,16c-2.9,2.9-4.9,6.2-4.9,8.3
		c0,0.8-1.3,2.8-2.8,4.6c-1.6,1.8-3.1,4.8-3.5,6.6c-0.8,3.7-3.1,8.8-4,8.8c-1.3,0-9.1-6.5-16.5-13.7c-15.4-15-18.5-17.6-21.4-17.6
		c-1.3,0-3.7-1-5.6-2.2c-1.9-1.2-6.7-3.7-10.9-5.5c-4.2-1.9-8.9-4.5-10.4-5.9c-6.1-5.5-8.4-7.3-11.5-9.2l-3.1-1.9l2.4-2.9
		C199.9,258.3,199.9,255.7,196.6,252.3z"/>
</g>
<g fill="currentColor" stroke-width="1" stroke="currentColor" class="district Kreis5">
	<path d="M189.2,210.5c-0.4-1.5,0-2,1.3-2c1,0,2.7-1.1,4-2.5c2.2-2.3,2.6-2.4,12.6-2.1l10.3,0.3l12.7,6.1
		c7,3.3,14.2,6.3,15.9,6.6c1.8,0.3,5,1.2,7.1,1.9c4.3,1.5,14.5,7.4,14.3,8.3c-0.2,0.5,2.1,3.2,8.6,10.3c1.1,1.2,3,2.7,4.4,3.4
		c1.3,0.7,5,3.3,8.3,5.9c3.2,2.5,7.3,5.4,9.1,6.4c2.9,1.7,3.1,2.1,3.1,7.2c0,2.9-0.3,6.3-0.6,7.4l-0.6,2.1l-6.3-2.1
		c-3.5-1.3-6.7-2.7-7-3.2c-0.3-0.6-2.9-1.9-5.9-3c-2.8-1.1-6.8-3-8.8-4.3c-4.5-2.9-8.4-4.3-13.4-4.9c-2.1-0.3-6.3-1.6-9.3-2.9
		c-23.6-10.9-48.8-24.2-55.5-29.2c-3-2.2-5.7-4.2-5.9-4.4c-0.2-0.1,0.2-0.9,0.9-1.8C189.2,213.1,189.5,211.5,189.2,210.5z"/>
</g>
<g fill="currentColor" stroke-width="1" stroke="currentColor" class="district Kreis9">
	<path d="M124.9,372.3l-2.2-2.1c-6.5-6.2-10.9-7.7-18.1-6.2c-5.6,1.2-14.3-0.7-17.2-3.6c-1.4-1.4-2.3-4-2.8-7.4
		c-0.9-6.9-2.4-9.1-9.2-13.4c-3-2-6.5-4.4-7.6-5.6l-2.1-2l2.1-2.7c1.1-1.5,3.8-3.9,6-5.4c4.7-3.1,6.2-4.6,9.2-8.8
		c1.9-2.6,2.1-4.2,2-9.8c-0.3-7.3-0.6-7.5-8.1-5.7c-2.5,0.6-3.6,0.1-6.8-2.8c-2.1-2-6.2-4.8-8.8-6.4c-2.7-1.6-6-3.9-7.2-5.3
		c-4-4.3-18.4-7.7-28.1-6.7c-4,0.4-5.8,0.1-8.2-1.4l-3-2l2.6-0.7c1.5-0.4,5.6-0.4,9.2-0.1c5.5,0.5,6.9,0.3,9.6-1.4
		c2.4-1.6,3.2-2.7,3.2-5s0.5-2.9,1.9-2.9c2.9,0,4.3-2.5,3.7-6.8c-0.3-2.4,0-2.7,0.6-3.9c0.3-0.5,0.1-0.3,0.4-0.6
		c0.1-0.6,0.7-2.4,2.1-4.7c1.6-2.1,3.8-6.4,5.1-9.4c1.2-2.9,2.7-5.7,3.2-6.1c0.1-0.5,0.1-0.4,0.3-0.8c0.6-0.9,2.8-7.1,5-8.9
		c1.3-1.1,2.3-1.4,3.2-0.8c2.2,1.4,5.4,1,7-0.9c3.4-3.8,3.2-12.3-0.4-15.9c-1.7-1.7-1.7-1.9-0.1-1.9c0.9,0,3.6,0.7,6,1.6
		c5.3,1.9,8.1,1.3,9.9-2.1c0.7-1.4,2.3-3.1,3.6-3.9c2.6-1.8,2.9-5.5,0.8-7.7c-0.9-0.9-3.4-2-5.7-2.5c-6.6-1.8-12.5-5.2-11.8-6.8
		c1.1-2.5,0.4-7.1-1.2-8.3c-2.4-1.8-1-9.2,1.9-9.7c1.2-0.2,5-0.9,8.5-1.5s8.6-1.7,11.2-2.5c6.8-2.1,17.2-1.5,20.7,1.1
		c1.5,1.1,4.8,5,7.4,8.7c6.4,9.4,7.9,10.7,13.6,12.6c6.2,2,13,2.1,18.4,0.1c5.5-2,8.1-1.9,12.8,0.4c2.1,1.1,5.2,2.1,6.6,2.5
		c2.4,0.5,7.9,5.3,7.9,6.9c0,0.7,4.4,4.3,7,5.9c1.7,0.9,1.4,1.3-2.8,3.4c-3.6,1.9-4.8,2.9-5,5c-0.2,1.6-0.7,2.7-1.2,2.7
		s-1.2,1-1.5,2.1c-0.4,1.3-2.3,4-4.4,6.2c-3.8,4.1-5.9,8.7-5.9,13.3c0,2.3,1,3.1,7.6,6.7c10.1,5.5,10.9,6.4,10.3,9.9
		c-0.4,2.1,0.1,3.3,2.3,5.6l2.8,2.8l-3.2,4.1c-1.8,2.3-4.7,6-6.6,8c-2,2.1-3.2,4.3-2.9,4.8s-1.3,2.6-3.5,4.7c-3.6,3.5-3.9,4.3-3.3,7
		c0.4,1.8,2.3,4.7,4.4,6.6c4.2,4.1,7.8,9.7,7.8,12.1c0,1.6-5.7,9.1-9.9,13.3c-15.5,14.8-16.7,16.4-17.1,24.1
		c-0.2,4.5-0.5,5.2-4.5,8.1c-2.2,1.8-7.2,5-11,7.2c-7.9,4.7-11.5,7.8-14.3,12.2L124.9,372.3z"/>
</g>
<g fill="currentColor" stroke-width="1" stroke="currentColor" class="district Kreis3">
	<path d="M182.5,467.9c-2.2-2.4-3.8-5-3.8-6.4c0-3.2-2.5-9.1-4-9.1c-0.8,0-0.5-0.8,0.6-2c1.4-1.5,1.7-3,1.3-7.3
		l-0.5-5.4L163,424.6c-7.2-7.3-15.1-14.6-17.7-16.3c-4.1-2.6-4.5-3.3-4-5.8c0.3-1.7,0-3.4-0.7-4.3c-0.4-0.9-0.4-1.1-0.7-1.4
		c-0.2-0.3-0.5-1.1-2.5-2.5c-3.8-2.6-3.9-2.7-3.6-8.9c0.1-3.2-0.3-4.4-2-5.6c-4.5-3.1,1.3-10.4,15.4-19.4
		c15.5-9.9,15.8-10.2,15.8-18.2c0-5,2.1-8.9,6.3-11.8c3.8-2.6,12.9-12.4,16.4-17.7c5.2-7.6,4.5-14.7-1.9-20.8
		c-1.3-1.2-2.3-2.5-2.3-2.9c0-0.5-0.7-1.5-1.5-2.2c-2-2-1.9-2.4,1-5.5c1.4-1.5,2.4-3,2.4-3.5c0-1.3,5.1-7,6.2-7c0.6,0,2.4,1.1,4,2.4
		c1.7,1.3,3.4,2.8,4.1,3.4c0.7,0.5,1.7,1,2.2,1c0.6,0,1.3,0.7,1.6,1.5c0.4,0.8,1,1.5,1.5,1.5c0.4,0,2.7,1.4,5.2,2.9
		c2.3,1.7,6.2,3.6,8.5,4.5c2.3,0.8,5.8,2.3,7.7,3.4c1.9,1.2,5.5,2.9,8.1,3.9c2.5,1,6,3.4,7.6,5.3s3.4,3.4,3.8,3.4
		c0.4,0,4.4,3.7,9,8.1c4.5,4.5,9.7,9,11.3,10.1c3.4,2,3.5,3,0.7,4.7c-3.5,2.1-11.3,10.6-12.7,14c-1.7,3.9-2,12.2-0.6,14.8
		c1.3,2.2,4.1,22.6,4.7,33.6c0.6,10.1-0.3,12.1-6.6,14.7c-11.5,4.9-16.5,7.4-18.4,9.3c-3,3-2.6,9.3,1,18.6c3.4,9,3.4,11.3-0.1,11
		c-17.3-1.8-17.6-1.7-25.6,2.1c-5.2,2.5-8.7,5-10.9,7.8c-4.2,5.1-9,15-8.5,17.8C187.7,472.8,186.4,472,182.5,467.9z"/>
</g>
<text transform="matrix(0.5909 0.8068 -0.8068 0.5909 335 415)" style="font-family: serif; font-size: 10px;" fill="#03254c">Zürisee</text>
</svg>
